<mxfile host="app.diagrams.net" modified="2023-02-20T09:11:08.544Z" agent="5.0 (Windows NT 10.0; Win64; x64) AppleWebKit/537.36 (KHTML, like Gecko) Chrome/110.0.0.0 Safari/537.36" etag="5eQQ30IsEaNSU7viGHbt" version="20.8.20" type="github">
  <diagram id="C5RBs43oDa-KdzZeNtuy" name="Page-1">
    <mxGraphModel dx="1430" dy="792" grid="1" gridSize="10" guides="1" tooltips="1" connect="1" arrows="1" fold="1" page="1" pageScale="1" pageWidth="1169" pageHeight="827" math="0" shadow="0">
      <root>
        <mxCell id="WIyWlLk6GJQsqaUBKTNV-0" />
        <mxCell id="WIyWlLk6GJQsqaUBKTNV-1" parent="WIyWlLk6GJQsqaUBKTNV-0" />
        <mxCell id="WIyWlLk6GJQsqaUBKTNV-2" value="" style="rounded=0;html=1;jettySize=auto;orthogonalLoop=1;fontSize=11;endArrow=block;endFill=0;endSize=8;strokeWidth=1;shadow=0;labelBackgroundColor=none;edgeStyle=orthogonalEdgeStyle;exitX=0.5;exitY=0.88;exitDx=0;exitDy=0;exitPerimeter=0;" parent="WIyWlLk6GJQsqaUBKTNV-1" source="Zim9T-EeI6xXf0g0qFfT-13" target="Zim9T-EeI6xXf0g0qFfT-5" edge="1">
          <mxGeometry relative="1" as="geometry">
            <mxPoint x="230" y="100" as="sourcePoint" />
            <mxPoint x="230" y="170" as="targetPoint" />
          </mxGeometry>
        </mxCell>
        <mxCell id="WIyWlLk6GJQsqaUBKTNV-12" value="ObjectDetector/YOLOV8" style="rounded=1;whiteSpace=wrap;html=1;fontSize=12;glass=0;strokeWidth=1;shadow=0;" parent="WIyWlLk6GJQsqaUBKTNV-1" vertex="1">
          <mxGeometry x="70" y="280" width="160" height="40" as="geometry" />
        </mxCell>
        <mxCell id="Zim9T-EeI6xXf0g0qFfT-1" value="" style="rounded=0;html=1;jettySize=auto;orthogonalLoop=1;fontSize=11;endArrow=block;endFill=0;endSize=8;strokeWidth=1;shadow=0;labelBackgroundColor=none;edgeStyle=orthogonalEdgeStyle;exitX=0.5;exitY=1;exitDx=0;exitDy=0;" edge="1" parent="WIyWlLk6GJQsqaUBKTNV-1" source="Zim9T-EeI6xXf0g0qFfT-5" target="WIyWlLk6GJQsqaUBKTNV-12">
          <mxGeometry relative="1" as="geometry">
            <mxPoint x="150" y="230" as="sourcePoint" />
            <mxPoint x="139.76" y="260" as="targetPoint" />
          </mxGeometry>
        </mxCell>
        <mxCell id="Zim9T-EeI6xXf0g0qFfT-5" value="FFmpeg/Opencv" style="rounded=1;whiteSpace=wrap;html=1;fontSize=12;glass=0;strokeWidth=1;shadow=0;" vertex="1" parent="WIyWlLk6GJQsqaUBKTNV-1">
          <mxGeometry x="70" y="170" width="160" height="40" as="geometry" />
        </mxCell>
        <mxCell id="Zim9T-EeI6xXf0g0qFfT-6" value="Tracker/ByteTracker" style="rounded=1;whiteSpace=wrap;html=1;fontSize=12;glass=0;strokeWidth=1;shadow=0;" vertex="1" parent="WIyWlLk6GJQsqaUBKTNV-1">
          <mxGeometry x="70" y="420" width="160" height="40" as="geometry" />
        </mxCell>
        <mxCell id="Zim9T-EeI6xXf0g0qFfT-7" value="" style="rounded=0;html=1;jettySize=auto;orthogonalLoop=1;fontSize=11;endArrow=block;endFill=0;endSize=8;strokeWidth=1;shadow=0;labelBackgroundColor=none;edgeStyle=orthogonalEdgeStyle;" edge="1" parent="WIyWlLk6GJQsqaUBKTNV-1" source="WIyWlLk6GJQsqaUBKTNV-12" target="Zim9T-EeI6xXf0g0qFfT-6">
          <mxGeometry relative="1" as="geometry">
            <mxPoint x="149.76" y="320" as="sourcePoint" />
            <mxPoint x="149.76" y="390" as="targetPoint" />
          </mxGeometry>
        </mxCell>
        <mxCell id="Zim9T-EeI6xXf0g0qFfT-8" value="Output/RTSP" style="rounded=1;whiteSpace=wrap;html=1;fontSize=12;glass=0;strokeWidth=1;shadow=0;" vertex="1" parent="WIyWlLk6GJQsqaUBKTNV-1">
          <mxGeometry x="70" y="564" width="160" height="40" as="geometry" />
        </mxCell>
        <mxCell id="Zim9T-EeI6xXf0g0qFfT-9" value="" style="rounded=0;html=1;jettySize=auto;orthogonalLoop=1;fontSize=11;endArrow=block;endFill=0;endSize=8;strokeWidth=1;shadow=0;labelBackgroundColor=none;edgeStyle=orthogonalEdgeStyle;entryX=0.5;entryY=0;entryDx=0;entryDy=0;" edge="1" parent="WIyWlLk6GJQsqaUBKTNV-1" source="Zim9T-EeI6xXf0g0qFfT-6" target="Zim9T-EeI6xXf0g0qFfT-8">
          <mxGeometry relative="1" as="geometry">
            <mxPoint x="149.76" y="430" as="sourcePoint" />
            <mxPoint x="149.76" y="500" as="targetPoint" />
          </mxGeometry>
        </mxCell>
        <mxCell id="Zim9T-EeI6xXf0g0qFfT-13" value="Input/RTSP" style="strokeWidth=2;html=1;shape=mxgraph.flowchart.multi-document;whiteSpace=wrap;" vertex="1" parent="WIyWlLk6GJQsqaUBKTNV-1">
          <mxGeometry x="210" y="30" width="160" height="60" as="geometry" />
        </mxCell>
        <mxCell id="Zim9T-EeI6xXf0g0qFfT-15" value="ObjectDetector/YOLOV8" style="rounded=1;whiteSpace=wrap;html=1;fontSize=12;glass=0;strokeWidth=1;shadow=0;" vertex="1" parent="WIyWlLk6GJQsqaUBKTNV-1">
          <mxGeometry x="370" y="280" width="160" height="40" as="geometry" />
        </mxCell>
        <mxCell id="Zim9T-EeI6xXf0g0qFfT-16" value="" style="rounded=0;html=1;jettySize=auto;orthogonalLoop=1;fontSize=11;endArrow=block;endFill=0;endSize=8;strokeWidth=1;shadow=0;labelBackgroundColor=none;edgeStyle=orthogonalEdgeStyle;exitX=0.5;exitY=1;exitDx=0;exitDy=0;" edge="1" parent="WIyWlLk6GJQsqaUBKTNV-1" source="Zim9T-EeI6xXf0g0qFfT-17" target="Zim9T-EeI6xXf0g0qFfT-15">
          <mxGeometry relative="1" as="geometry">
            <mxPoint x="450" y="230" as="sourcePoint" />
            <mxPoint x="439.76" y="260" as="targetPoint" />
          </mxGeometry>
        </mxCell>
        <mxCell id="Zim9T-EeI6xXf0g0qFfT-17" value="FFmpeg/Opencv" style="rounded=1;whiteSpace=wrap;html=1;fontSize=12;glass=0;strokeWidth=1;shadow=0;" vertex="1" parent="WIyWlLk6GJQsqaUBKTNV-1">
          <mxGeometry x="370" y="170" width="160" height="40" as="geometry" />
        </mxCell>
        <mxCell id="Zim9T-EeI6xXf0g0qFfT-18" value="Tracker/ByteTracker" style="rounded=1;whiteSpace=wrap;html=1;fontSize=12;glass=0;strokeWidth=1;shadow=0;" vertex="1" parent="WIyWlLk6GJQsqaUBKTNV-1">
          <mxGeometry x="370" y="420" width="160" height="40" as="geometry" />
        </mxCell>
        <mxCell id="Zim9T-EeI6xXf0g0qFfT-19" value="" style="rounded=0;html=1;jettySize=auto;orthogonalLoop=1;fontSize=11;endArrow=block;endFill=0;endSize=8;strokeWidth=1;shadow=0;labelBackgroundColor=none;edgeStyle=orthogonalEdgeStyle;" edge="1" parent="WIyWlLk6GJQsqaUBKTNV-1" source="Zim9T-EeI6xXf0g0qFfT-15" target="Zim9T-EeI6xXf0g0qFfT-18">
          <mxGeometry relative="1" as="geometry">
            <mxPoint x="449.76" y="320" as="sourcePoint" />
            <mxPoint x="449.76" y="390" as="targetPoint" />
          </mxGeometry>
        </mxCell>
        <mxCell id="Zim9T-EeI6xXf0g0qFfT-20" value="Output/RTSP" style="rounded=1;whiteSpace=wrap;html=1;fontSize=12;glass=0;strokeWidth=1;shadow=0;" vertex="1" parent="WIyWlLk6GJQsqaUBKTNV-1">
          <mxGeometry x="370" y="564" width="160" height="40" as="geometry" />
        </mxCell>
        <mxCell id="Zim9T-EeI6xXf0g0qFfT-21" value="" style="rounded=0;html=1;jettySize=auto;orthogonalLoop=1;fontSize=11;endArrow=block;endFill=0;endSize=8;strokeWidth=1;shadow=0;labelBackgroundColor=none;edgeStyle=orthogonalEdgeStyle;entryX=0.5;entryY=0;entryDx=0;entryDy=0;" edge="1" parent="WIyWlLk6GJQsqaUBKTNV-1" source="Zim9T-EeI6xXf0g0qFfT-18" target="Zim9T-EeI6xXf0g0qFfT-20">
          <mxGeometry relative="1" as="geometry">
            <mxPoint x="449.76" y="430" as="sourcePoint" />
            <mxPoint x="449.76" y="500" as="targetPoint" />
          </mxGeometry>
        </mxCell>
        <mxCell id="Zim9T-EeI6xXf0g0qFfT-23" value="" style="rounded=0;html=1;jettySize=auto;orthogonalLoop=1;fontSize=11;endArrow=block;endFill=0;endSize=8;strokeWidth=1;shadow=0;labelBackgroundColor=none;edgeStyle=orthogonalEdgeStyle;exitX=0.5;exitY=0.88;exitDx=0;exitDy=0;exitPerimeter=0;" edge="1" parent="WIyWlLk6GJQsqaUBKTNV-1" source="Zim9T-EeI6xXf0g0qFfT-13" target="Zim9T-EeI6xXf0g0qFfT-17">
          <mxGeometry relative="1" as="geometry">
            <mxPoint x="280" y="90" as="sourcePoint" />
            <mxPoint x="160" y="180" as="targetPoint" />
            <Array as="points">
              <mxPoint x="290" y="130" />
              <mxPoint x="450" y="130" />
            </Array>
          </mxGeometry>
        </mxCell>
        <mxCell id="Zim9T-EeI6xXf0g0qFfT-24" value="" style="endArrow=none;dashed=1;html=1;dashPattern=1 3;strokeWidth=2;rounded=0;" edge="1" parent="WIyWlLk6GJQsqaUBKTNV-1">
          <mxGeometry width="50" height="50" relative="1" as="geometry">
            <mxPoint x="260" y="189.76" as="sourcePoint" />
            <mxPoint x="350" y="189.76" as="targetPoint" />
          </mxGeometry>
        </mxCell>
        <mxCell id="Zim9T-EeI6xXf0g0qFfT-25" value="" style="endArrow=none;dashed=1;html=1;dashPattern=1 3;strokeWidth=2;rounded=0;" edge="1" parent="WIyWlLk6GJQsqaUBKTNV-1">
          <mxGeometry width="50" height="50" relative="1" as="geometry">
            <mxPoint x="260" y="299.76" as="sourcePoint" />
            <mxPoint x="350" y="299.76" as="targetPoint" />
          </mxGeometry>
        </mxCell>
        <mxCell id="Zim9T-EeI6xXf0g0qFfT-26" value="" style="endArrow=none;dashed=1;html=1;dashPattern=1 3;strokeWidth=2;rounded=0;" edge="1" parent="WIyWlLk6GJQsqaUBKTNV-1">
          <mxGeometry width="50" height="50" relative="1" as="geometry">
            <mxPoint x="260" y="583.76" as="sourcePoint" />
            <mxPoint x="350" y="583.76" as="targetPoint" />
          </mxGeometry>
        </mxCell>
        <mxCell id="Zim9T-EeI6xXf0g0qFfT-27" value="" style="endArrow=none;dashed=1;html=1;dashPattern=1 3;strokeWidth=2;rounded=0;" edge="1" parent="WIyWlLk6GJQsqaUBKTNV-1">
          <mxGeometry width="50" height="50" relative="1" as="geometry">
            <mxPoint x="260" y="439.76" as="sourcePoint" />
            <mxPoint x="350" y="439.76" as="targetPoint" />
          </mxGeometry>
        </mxCell>
        <mxCell id="Zim9T-EeI6xXf0g0qFfT-28" value="C++ Mulit" style="text;html=1;align=center;verticalAlign=middle;resizable=0;points=[];autosize=1;strokeColor=none;fillColor=none;" vertex="1" parent="WIyWlLk6GJQsqaUBKTNV-1">
          <mxGeometry x="290" y="110" width="70" height="30" as="geometry" />
        </mxCell>
        <mxCell id="Zim9T-EeI6xXf0g0qFfT-68" value="" style="strokeWidth=1;shadow=0;dashed=0;align=center;html=1;shape=mxgraph.mockup.rrect;rSize=10;labelBorderColor=#000000;" vertex="1" parent="WIyWlLk6GJQsqaUBKTNV-1">
          <mxGeometry x="620" y="240" width="120" height="270" as="geometry" />
        </mxCell>
        <mxCell id="Zim9T-EeI6xXf0g0qFfT-69" value="口罩识别" style="strokeColor=inherit;fillColor=inherit;gradientColor=inherit;strokeWidth=1;shadow=0;dashed=0;align=center;html=1;shape=mxgraph.mockup.rrect;rSize=0;fontSize=17;fontColor=#666666;fontStyle=1;resizeWidth=1;" vertex="1" parent="Zim9T-EeI6xXf0g0qFfT-68">
          <mxGeometry width="120" height="50" relative="1" as="geometry">
            <mxPoint y="50" as="offset" />
          </mxGeometry>
        </mxCell>
        <mxCell id="Zim9T-EeI6xXf0g0qFfT-70" value="入侵检测" style="strokeColor=inherit;fillColor=inherit;gradientColor=inherit;strokeWidth=1;shadow=0;dashed=0;align=center;html=1;shape=mxgraph.mockup.rrect;rSize=0;fontSize=17;fontColor=#666666;fontStyle=1;resizeWidth=1;" vertex="1" parent="Zim9T-EeI6xXf0g0qFfT-68">
          <mxGeometry width="120" height="50" relative="1" as="geometry">
            <mxPoint y="100" as="offset" />
          </mxGeometry>
        </mxCell>
        <mxCell id="Zim9T-EeI6xXf0g0qFfT-71" value="违停检测" style="strokeColor=inherit;fillColor=inherit;gradientColor=inherit;strokeWidth=1;shadow=0;dashed=0;align=center;html=1;shape=mxgraph.mockup.bottomButton;rSize=10;fontSize=17;fontColor=#666666;fontStyle=1;resizeWidth=1;" vertex="1" parent="Zim9T-EeI6xXf0g0qFfT-68">
          <mxGeometry y="1" width="120" height="50" relative="1" as="geometry">
            <mxPoint y="-50" as="offset" />
          </mxGeometry>
        </mxCell>
        <mxCell id="Zim9T-EeI6xXf0g0qFfT-74" value="REID" style="strokeColor=inherit;fillColor=inherit;gradientColor=inherit;strokeWidth=1;shadow=0;dashed=0;align=center;html=1;shape=mxgraph.mockup.bottomButton;rSize=10;fontSize=17;fontColor=#666666;fontStyle=1;resizeWidth=1;direction=west;" vertex="1" parent="Zim9T-EeI6xXf0g0qFfT-68">
          <mxGeometry width="120" height="50" as="geometry" />
        </mxCell>
        <mxCell id="Zim9T-EeI6xXf0g0qFfT-77" value="" style="endArrow=none;dashed=1;html=1;dashPattern=1 3;strokeWidth=2;rounded=0;" edge="1" parent="Zim9T-EeI6xXf0g0qFfT-68">
          <mxGeometry width="50" height="50" relative="1" as="geometry">
            <mxPoint x="59.76" y="200" as="sourcePoint" />
            <mxPoint x="59.76" y="160" as="targetPoint" />
          </mxGeometry>
        </mxCell>
        <mxCell id="Zim9T-EeI6xXf0g0qFfT-78" value="MQTT" style="rounded=1;whiteSpace=wrap;html=1;labelBackgroundColor=none;labelBorderColor=none;fillColor=#FFFFFF;" vertex="1" parent="WIyWlLk6GJQsqaUBKTNV-1">
          <mxGeometry x="830" y="345" width="120" height="60" as="geometry" />
        </mxCell>
        <mxCell id="Zim9T-EeI6xXf0g0qFfT-79" value="" style="endArrow=classic;html=1;rounded=0;entryX=0;entryY=0.5;entryDx=0;entryDy=0;" edge="1" parent="WIyWlLk6GJQsqaUBKTNV-1" source="Zim9T-EeI6xXf0g0qFfT-68" target="Zim9T-EeI6xXf0g0qFfT-78">
          <mxGeometry width="50" height="50" relative="1" as="geometry">
            <mxPoint x="800" y="520" as="sourcePoint" />
            <mxPoint x="850" y="470" as="targetPoint" />
          </mxGeometry>
        </mxCell>
        <mxCell id="Zim9T-EeI6xXf0g0qFfT-81" value="" style="strokeWidth=2;html=1;shape=mxgraph.flowchart.annotation_2;align=left;labelPosition=right;pointerEvents=1;labelBackgroundColor=none;labelBorderColor=none;fillColor=#FFFFFF;direction=west;" vertex="1" parent="WIyWlLk6GJQsqaUBKTNV-1">
          <mxGeometry x="530" y="300" width="90" height="140" as="geometry" />
        </mxCell>
        <mxCell id="Zim9T-EeI6xXf0g0qFfT-82" value="" style="strokeWidth=2;html=1;shape=mxgraph.flowchart.annotation_1;align=left;pointerEvents=1;labelBackgroundColor=none;labelBorderColor=none;fillColor=#FFFFFF;" vertex="1" parent="WIyWlLk6GJQsqaUBKTNV-1">
          <mxGeometry x="40" y="300" width="30" height="140" as="geometry" />
        </mxCell>
      </root>
    </mxGraphModel>
  </diagram>
</mxfile>
